<?xml version="1.0" standalone="no"?>
<!DOCTYPE svg PUBLIC "-//W3C//DTD SVG 1.1//EN" "http://www.w3.org/Graphics/SVG/1.1/DTD/svg11.dtd" >
<svg xmlns="http://www.w3.org/2000/svg" xmlns:xlink="http://www.w3.org/1999/xlink" version="1.1">
<metadata></metadata>
<defs>
<font id="arimoregular" horiz-adv-x="1116" >
<font-face units-per-em="2048" ascent="1638" descent="-410" />
<missing-glyph horiz-adv-x="557" />
<glyph horiz-adv-x="0" />
<glyph unicode="&#xd;" horiz-adv-x="557" />
<glyph unicode=" "  horiz-adv-x="557" />
<glyph unicode="&#x09;" horiz-adv-x="557" />
<glyph unicode="&#xa0;" horiz-adv-x="557" />
<glyph unicode="!" horiz-adv-x="557" d="M181 0v197h190v-197h-190zM183 1381h192l-23 -992h-145z" />
<glyph unicode="&#x22;" horiz-adv-x="712" d="M85 1381h181l-22 -434h-138zM447 1381h180l-21 -434h-140z" />
<glyph unicode="#" d="M9 400v106h220l77 361h-247v106h268l88 400h107l-86 -400h356l86 400h108l-86 -400h206v-106h-228l-76 -361h254v-106h-277l-86 -400h-108l84 400h-355l-83 -400h-108l83 400h-197zM338 506h355l76 361h-353z" />
<glyph unicode="$" d="M22 371l166 37q25 -117 102.5 -176t217.5 -67v486q-174 43 -240 77t-106.5 79t-59 96t-18.5 122q0 152 110.5 237.5t313.5 94.5v129h121v-129q183 -9 283 -83t142 -230l-171 -33q-20 92 -79.5 143.5t-174.5 62.5v-436q176 -41 250 -75.5t117 -77.5t65.5 -102t22.5 -138 q0 -162 -118.5 -260t-336.5 -108v-159h-121v159q-418 17 -486 351zM253 1027q0 -58 24.5 -98t73 -67.5t157.5 -54.5v412q-255 -14 -255 -192zM629 164q138 8 212 65t74 157q0 64 -25.5 105t-73.5 68t-187 63v-458z" />
<glyph unicode="%" horiz-adv-x="1784" d="M72 956q0 218 75 327.5t239 109.5q156 0 231.5 -110t75.5 -327q0 -213 -78 -327.5t-233 -114.5t-232.5 113.5t-77.5 328.5zM216 956q0 -170 39 -251t129 -81q85 0 125 82.5t40 249.5q0 172 -37.5 251.5t-125.5 79.5q-92 0 -131 -78t-39 -253zM365 0l903 1381h154 l-906 -1381h-151zM1091 425q0 224 75 333t237 109q161 0 235.5 -112t74.5 -330q0 -210 -79.5 -323.5t-234.5 -113.5q-152 0 -230 110.5t-78 326.5zM1235 425q0 -167 38.5 -248t127.5 -81q87 0 127 82t40 247q0 176 -37.5 255t-127.5 79q-89 0 -128.5 -77.5t-39.5 -256.5z " />
<glyph unicode="&#x26;" horiz-adv-x="1338" d="M71 364q0 272 336 420q-33 61 -56.5 144t-23.5 152q0 147 90 228t254 81q148 0 239 -74.5t91 -204.5q0 -115 -90 -205.5t-311 -178.5q109 -201 287 -404q111 163 167 402l143 -42q-62 -244 -208 -460q94 -96 204 -96q69 0 114 16v-132q-55 -22 -138 -22q-173 0 -292 125 q-73 -64 -167.5 -98.5t-196.5 -34.5q-211 0 -326.5 101.5t-115.5 282.5zM235 366q0 -119 76 -188t207 -69q70 0 139.5 27t121.5 77q-194 229 -313 448q-231 -98 -231 -295zM477 1080q0 -112 64 -239q128 52 188.5 90t91.5 82t31 97q0 71 -49 115.5t-134 44.5 q-94 0 -143 -50.5t-49 -139.5z" />
<glyph unicode="'" horiz-adv-x="383" d="M102 1381h180l-21 -434h-139z" />
<glyph unicode="(" horiz-adv-x="668" d="M124 517v4q0 284 89 509t273 424h171q-184 -204 -269.5 -433t-85.5 -502q0 -271 84.5 -499.5t270.5 -435.5h-171q-185 200 -273.5 426t-88.5 507z" />
<glyph unicode=")" horiz-adv-x="668" d="M12 -416q184 206 269.5 434t85.5 501q0 274 -86 502.5t-269 432.5h170q186 -200 274 -425.5t88 -507.5v-4q0 -283 -88.5 -508.5t-273.5 -424.5h-170z" />
<glyph unicode="*" horiz-adv-x="781" d="M32 1063l44 132l262 -105l-12 291h134l-13 -289l259 101l44 -130l-277 -71l182 -245l-117 -71l-147 253l-153 -251l-116 71l185 243z" />
<glyph unicode="+" horiz-adv-x="1172" d="M98 596v143h416v419h144v-419h415v-143h-415v-420h-144v420h-416z" />
<glyph unicode="," horiz-adv-x="557" d="M180 -257q92 134 92 257h-86v215h191v-165q0 -104 -18.5 -173.5t-57.5 -133.5h-121z" />
<glyph unicode="-" horiz-adv-x="668" d="M89 455v157h490v-157h-490z" />
<glyph unicode="." horiz-adv-x="557" d="M183 0v215h191v-215h-191z" />
<glyph unicode="/" horiz-adv-x="557" d="M0 -20l403 1474h155l-399 -1474h-159z" />
<glyph unicode="0" d="M78 691q0 356 116.5 533t367.5 177q244 0 360 -179t116 -531q0 -346 -122 -528.5t-360 -182.5t-358 181.5t-120 529.5zM257 691q0 -294 72 -430.5t229 -136.5q155 0 227.5 139.5t72.5 427.5q0 299 -69 433t-227 134q-163 0 -234 -132t-71 -435z" />
<glyph unicode="1" d="M153 0v150h352v1062l-312 -222v166l326 225h163v-1231h336v-150h-865z" />
<glyph unicode="2" d="M101 0v124q50 115 122 203t151.5 159t157.5 131.5t140.5 121.5t101 127.5t38.5 150.5q0 114 -66.5 176.5t-184.5 62.5q-113 0 -186 -61t-86 -172l-180 17q19 165 140 263t312 98q208 0 320.5 -98.5t112.5 -279.5q0 -80 -37 -159.5t-109.5 -159t-277.5 -245.5 q-112 -92 -179 -166t-96 -143h720v-150h-914z" />
<glyph unicode="3" d="M76 355l183 16q35 -245 301 -245q133 0 209 66t76 195q0 113 -87 176t-250 63h-100v153h96q145 0 224.5 63.5t79.5 174.5t-65 175t-193 64q-117 0 -189 -59.5t-84 -168.5l-177 14q20 169 141 264t311 95q208 0 323 -96.5t115 -268.5q0 -132 -74 -215t-215 -112v-4 q155 -17 241 -104t86 -220q0 -191 -121.5 -296t-346.5 -105q-210 0 -335 95t-149 280z" />
<glyph unicode="4" d="M46 313v137l632 931h185v-929h194v-139h-194v-313h-166v313h-651zM209 452h488v730q-2 -6 -27.5 -52t-38.5 -65l-354 -521l-53 -73z" />
<glyph unicode="5" d="M80 309l179 20q56 -205 287 -205q142 0 222.5 86t80.5 236q0 130 -81 210.5t-218 80.5q-72 0 -133.5 -22.5t-123.5 -76.5h-172l46 743h785v-150h-625l-26 -438q115 88 285 88q204 0 325 -119.5t121 -311.5q0 -219 -130 -344.5t-360 -125.5q-193 0 -311.5 84.5 t-150.5 244.5z" />
<glyph unicode="6" d="M102 659q0 358 128.5 550t365.5 192q312 0 394 -281l-169 -30q-52 168 -227 168q-151 0 -234 -140.5t-83 -407.5q48 90 135.5 136.5t199.5 46.5q192 0 304 -119.5t112 -321.5q0 -219 -118.5 -345.5t-327.5 -126.5q-233 0 -356.5 173.5t-123.5 505.5zM295 486 q0 -160 79 -262t202 -102q128 0 200.5 86t72.5 236t-73.5 231.5t-205.5 81.5q-123 0 -199 -72.5t-76 -198.5z" />
<glyph unicode="7" d="M103 1231v150h912v-143q-211 -324 -298.5 -507t-131 -361.5t-43.5 -369.5h-184q0 265 112 557.5t375 673.5h-742z" />
<glyph unicode="8" d="M87 383q0 135 77.5 227.5t198.5 111.5v4q-113 27 -178 115t-65 207q0 157 118 255t317 98q204 0 322 -96t118 -259q0 -119 -66 -207t-179 -111v-4q132 -21 205.5 -112t73.5 -227q0 -191 -121.5 -298t-348.5 -107q-222 0 -347 105t-125 298zM270 398q0 -285 291 -285 q144 0 214.5 69t70.5 220q0 128 -76.5 193.5t-214.5 65.5q-135 0 -210 -70.5t-75 -192.5zM300 1036q0 -119 67 -181t190 -62q124 0 189 57t65 186q0 234 -256 234q-125 0 -190 -59t-65 -175z" />
<glyph unicode="9" d="M94 937q0 216 121.5 340t338.5 124q230 0 348.5 -170.5t118.5 -512.5q0 -355 -130 -546.5t-370 -191.5q-161 0 -258.5 68.5t-140.5 220.5l169 26q53 -173 233 -173q152 0 235.5 141.5t87.5 402.5q-39 -88 -134.5 -141.5t-208.5 -53.5q-186 0 -298 127.5t-112 338.5z M273 937q0 -151 73.5 -238.5t199.5 -87.5q76 0 142 34.5t103.5 98.5t37.5 145q0 166 -76.5 267.5t-204.5 101.5t-201.5 -86.5t-73.5 -234.5z" />
<glyph unicode=":" horiz-adv-x="557" d="M183 0v203h191v-203h-191zM183 858v202h191v-202h-191z" />
<glyph unicode=";" horiz-adv-x="557" d="M180 -257q92 134 92 257h-86v203h191v-153q0 -104 -18.5 -173.5t-57.5 -133.5h-121zM186 858v202h191v-202h-191z" />
<glyph unicode="&#x3c;" horiz-adv-x="1172" d="M99 560v200l975 410v-151l-841 -358l841 -360v-150z" />
<glyph unicode="=" horiz-adv-x="1172" d="M98 337v145h975v-145h-975zM98 839v145h975v-145h-975z" />
<glyph unicode="&#x3e;" horiz-adv-x="1172" d="M99 151v150l841 360l-841 358v151l975 -410v-200z" />
<glyph unicode="?" d="M82 1000q26 194 153.5 297.5t336.5 103.5q219 0 344.5 -103t125.5 -287q0 -73 -21.5 -131t-62 -107t-131.5 -115l-78 -58q-71 -51 -105 -107.5t-35 -123.5h-172q2 68 21 119t49.5 90t68.5 70t77.5 59t77 56t67 62t47.5 77.5t18 101.5q0 111 -76 176t-213 65t-217.5 -69 t-93.5 -188zM429 0v197h191v-197h-191z" />
<glyph unicode="@" horiz-adv-x="2037" d="M158 481q0 275 122 499t338.5 349t484.5 125q237 0 408.5 -88.5t262 -250t90.5 -375.5q0 -182 -56.5 -329.5t-157 -228t-224.5 -80.5q-97 0 -150 43t-53 129l3 69h-6q-65 -121 -160.5 -181t-205.5 -60q-154 0 -239 100t-85 277q0 161 63.5 299t177 219.5t251.5 81.5 q215 0 295 -178h6l38 156h153l-114 -495q-36 -161 -36 -248q0 -93 80 -93q78 0 144 68t104.5 186.5t38.5 262.5q0 175 -75.5 311t-217.5 209t-333 73q-237 0 -419 -105t-286 -302.5t-104 -442.5q0 -189 77 -333.5t222.5 -222t339.5 -77.5q142 0 288 37t303 122l54 -110 q-142 -85 -308.5 -129.5t-336.5 -44.5q-236 0 -413 93.5t-270.5 266.5t-93.5 398zM692 481q0 -117 46.5 -184t143.5 -67q122 0 224 103t142 257q22 90 22 142q0 100 -64.5 161.5t-172.5 61.5q-99 0 -176 -62.5t-121 -172.5t-44 -239z" />
<glyph unicode="A" horiz-adv-x="1338" d="M4 0l563 1381h213l555 -1381h-191l-158 404h-629l-159 -404h-194zM414 550h516l-177 455q-28 68 -55 153l-27 82l-9 -28q-24 -81 -72 -208z" />
<glyph unicode="B" horiz-adv-x="1338" d="M165 0v1381h501q486 0 486 -335q0 -123 -68.5 -206t-193.5 -112q164 -19 253.5 -110t89.5 -229q0 -184 -134.5 -286.5t-373.5 -102.5h-560zM352 150h363q172 0 250.5 63.5t78.5 190.5q0 244 -343 244h-349v-498zM352 794h314q150 0 224 56t74 173q0 112 -76.5 160 t-221.5 48h-314v-437z" />
<glyph unicode="C" horiz-adv-x="1449" d="M102 697q0 330 178.5 517t493.5 187q221 0 369 -86t217 -256l-177 -58q-48 120 -154.5 184t-252.5 64q-229 0 -356.5 -147.5t-127.5 -404.5q0 -254 133 -408.5t359 -154.5q290 0 436 287l153 -76q-85 -178 -239.5 -271.5t-358.5 -93.5q-209 0 -361 87t-232 248t-80 382z " />
<glyph unicode="D" horiz-adv-x="1449" d="M165 0v1381h456q351 0 541.5 -176t190.5 -500q0 -214 -83 -374t-236 -245.5t-353 -85.5h-516zM352 150h308q151 0 266.5 66.5t177 192t61.5 296.5q0 256 -140.5 391t-407.5 135h-265v-1081z" />
<glyph unicode="E" horiz-adv-x="1338" d="M165 0v1381h1047v-153h-860v-443h801v-151h-801v-481h900v-153h-1087z" />
<glyph unicode="F" horiz-adv-x="1225" d="M165 0v1381h981v-153h-794v-514h770v-154h-770v-560h-187z" />
<glyph unicode="G" horiz-adv-x="1561" d="M101 697q0 336 180.5 520t506.5 184q229 0 372 -77t221 -248l-179 -53q-58 118 -161.5 172t-257.5 54q-239 0 -365.5 -145t-126.5 -407t134.5 -413.5t371.5 -151.5q135 0 252 41.5t190 111.5v249h-413v157h585v-476q-110 -112 -269 -173.5t-345 -61.5q-217 0 -373.5 86.5 t-239.5 248.5t-83 382z" />
<glyph unicode="H" horiz-adv-x="1449" d="M165 0v1381h187v-584h747v584h187v-1381h-187v640h-747v-640h-187z" />
<glyph unicode="I" horiz-adv-x="557" d="M185 0v1381h187v-1381h-187z" />
<glyph unicode="J" horiz-adv-x="1003" d="M31 343l184 30q17 -113 79 -177t155 -64q102 0 160.5 70t58.5 206v820h-265v153h452v-969q0 -201 -109 -316.5t-298 -115.5q-351 0 -417 363z" />
<glyph unicode="K" horiz-adv-x="1338" d="M165 0v1381h187v-692l665 692h221l-588 -600l666 -781h-232l-552 666l-180 -137v-529h-187z" />
<glyph unicode="L" d="M165 0v1381h187v-1228h698v-153h-885z" />
<glyph unicode="M" horiz-adv-x="1671" d="M165 0v1381h246l367 -958q20 -57 38 -123.5t24 -95.5q8 39 33 119t33 100l361 958h240v-1381h-168v921q0 153 9 294q-49 -175 -87 -274l-356 -941h-132l-361 941l-55 166l-33 108l3 -109l4 -185v-921h-166z" />
<glyph unicode="N" horiz-adv-x="1449" d="M165 0v1381h217l747 -1184q-12 192 -12 278v906h169v-1381h-226l-739 1176l5 -95l5 -164v-917h-166z" />
<glyph unicode="O" horiz-adv-x="1561" d="M95 697q0 331 181.5 517.5t504.5 186.5q211 0 365.5 -83.5t236.5 -243.5t82 -377t-83 -379.5t-237.5 -250t-365.5 -87.5q-213 0 -367 86.5t-235.5 249.5t-81.5 381zM285 697q0 -260 131 -412.5t363 -152.5q239 0 367 147.5t128 417.5q0 258 -129 405t-364 147 q-237 0 -366.5 -145.5t-129.5 -406.5z" />
<glyph unicode="P" horiz-adv-x="1338" d="M165 0v1381h581q232 0 359.5 -109t127.5 -307q0 -196 -128 -311.5t-347 -115.5h-406v-538h-187zM352 686h379q314 0 314 277q0 268 -322 268h-371v-545z" />
<glyph unicode="Q" horiz-adv-x="1561" d="M95 697q0 331 181.5 517.5t504.5 186.5q211 0 365.5 -83.5t236.5 -243.5t82 -377q0 -292 -147 -480.5t-409 -222.5q41 -123 106 -178t165 -55q54 0 113 13v-132q-92 -21 -175 -21q-148 0 -243.5 83.5t-156.5 279.5q-194 10 -334.5 99t-214.5 247t-74 367zM285 697 q0 -260 131 -412.5t363 -152.5q239 0 367 147.5t128 417.5q0 258 -129 405t-364 147q-237 0 -366.5 -145.5t-129.5 -406.5z" />
<glyph unicode="R" horiz-adv-x="1449" d="M165 0v1381h649q234 0 360.5 -104.5t126.5 -290.5q0 -154 -89.5 -259t-247.5 -132l392 -595h-215l-359 573h-430v-573h-187zM352 721h452q148 0 228.5 69t80.5 194q0 120 -81.5 183.5t-235.5 63.5h-444v-510z" />
<glyph unicode="S" horiz-adv-x="1338" d="M91 331l181 37q32 -125 134 -183.5t277 -58.5q181 0 279.5 62.5t98.5 182.5q0 68 -30.5 110t-86.5 69.5t-133.5 46t-171.5 40.5q-164 36 -248.5 72.5t-133.5 81t-75 104.5t-26 137q0 177 135.5 273t388.5 96q235 0 359.5 -72t174.5 -245l-184 -32q-30 109 -115.5 158.5 t-236.5 49.5q-165 0 -252.5 -54.5t-87.5 -163.5q0 -64 34 -105.5t97.5 -70.5t253.5 -71q64 -15 127 -30t121 -36t108.5 -49.5t87.5 -70t58.5 -97t21.5 -131.5q0 -191 -149.5 -296t-421.5 -105q-504 0 -585 351z" />
<glyph unicode="T" horiz-adv-x="1225" d="M45 1228v153h1135v-153h-474v-1228h-187v1228h-474z" />
<glyph unicode="U" horiz-adv-x="1449" d="M155 502v879h187v-864q0 -189 96 -287t277 -98q187 0 290 101.5t103 296.5v851h187v-862q0 -167 -71.5 -288.5t-201 -186t-306.5 -64.5q-169 0 -295.5 62t-196 179.5t-69.5 280.5z" />
<glyph unicode="V" horiz-adv-x="1338" d="M9 1381h197l382 -972l82 -244l83 244l380 972h197l-564 -1381h-194z" />
<glyph unicode="W" horiz-adv-x="1894" d="M9 1381h195l248 -877q44 -165 81 -339q24 107 54.5 234.5t271.5 981.5h180l240 -860q55 -210 86 -356l9 34q26 113 43 184t275 998h195l-406 -1381h-224l-239 877q-23 82 -68 295q-26 -114 -43.5 -190t-267.5 -982h-223z" />
<glyph unicode="X" horiz-adv-x="1338" d="M45 0l525 717l-485 664h207l384 -542l374 542h206l-472 -657l513 -724h-207l-415 604l-423 -604h-207z" />
<glyph unicode="Y" horiz-adv-x="1338" d="M44 1381h206l420 -658l419 658h206l-534 -809v-572h-186v572z" />
<glyph unicode="Z" horiz-adv-x="1225" d="M64 0v140l841 1088h-770v153h982v-136l-841 -1092h887v-153h-1099z" />
<glyph unicode="[" horiz-adv-x="557" d="M143 -416v1870h399v-126h-228v-1618h228v-126h-399z" />
<glyph unicode="\" horiz-adv-x="557" d="M0 1454h155l403 -1474h-159z" />
<glyph unicode="]" horiz-adv-x="557" d="M16 -290h228v1618h-228v126h399v-1870h-399v126z" />
<glyph unicode="^" horiz-adv-x="941" d="M10 660l360 721h199l363 -721h-161l-303 620l-299 -620h-159z" />
<glyph unicode="_" d="M-30 -271h1169v-128h-1169v128z" />
<glyph unicode="`" horiz-adv-x="668" d="M104 1449v29h203l212 -281v-20h-92z" />
<glyph unicode="a" d="M85 296q0 165 108.5 253t349.5 94l238 4v58q0 129 -55 185t-172 56q-119 0 -173 -40.5t-64 -128.5l-185 17q45 286 426 286q200 0 300.5 -91.5t100.5 -265.5v-456q0 -79 21 -118.5t78 -39.5q26 0 58 7v-110q-66 -16 -136 -16q-98 0 -142.5 51.5t-50.5 161.5h-6 q-68 -122 -157.5 -172.5t-217.5 -50.5q-160 0 -240.5 84.5t-80.5 231.5zM267 293q0 -86 46.5 -133t132.5 -47q97 0 172.5 44t119 121t43.5 158v87l-193 -4q-124 -2 -188.5 -25.5t-98.5 -72.5t-34 -128z" />
<glyph unicode="b" d="M129 0q6 53 6 219v1235h177v-414q0 -64 -4 -150h4q49 102 129.5 146t200.5 44q201 0 295.5 -135.5t94.5 -409.5q0 -555 -390 -555q-121 0 -200.5 44t-129.5 141h-2q0 -31 -4 -93t-6 -72h-171zM312 518q0 -208 66.5 -307.5t216.5 -99.5q133 0 192.5 98.5t59.5 319.5 q0 223 -59 319t-191 96q-149 0 -217 -102t-68 -324z" />
<glyph unicode="c" horiz-adv-x="1003" d="M85 531q0 268 117.5 408.5t337.5 140.5q163 0 270 -84.5t135 -232.5l-182 -13q-13 88 -69 140t-159 52q-140 0 -202.5 -93t-62.5 -314q0 -212 66.5 -313.5t200.5 -101.5q94 0 157.5 50.5t77.5 156.5l179 -11q-21 -153 -131 -244.5t-278 -91.5q-223 0 -340 141t-117 410z " />
<glyph unicode="d" d="M84 525q0 555 390 555q121 0 201.5 -44t129.5 -140h2l-2 118v440h176v-1235q0 -166 6 -219h-169q-3 16 -6.5 72.5t-3.5 98.5h-3q-49 -102 -130 -146.5t-201 -44.5q-201 0 -295.5 135.5t-94.5 409.5zM270 531q0 -222 58.5 -318t190.5 -96q150 0 218 103.5t68 322.5 q0 211 -68 309t-216 98q-133 0 -192 -98.5t-59 -320.5z" />
<glyph unicode="e" d="M85 537q0 263 123 403t352 140q467 0 467 -564v-23h-757q0 -182 75.5 -281t220.5 -99q115 0 184 46t94 116l155 -44q-95 -251 -433 -251q-235 0 -358 140.5t-123 416.5zM272 628h573q-15 168 -85.5 245t-202.5 77q-129 0 -204 -86t-81 -236z" />
<glyph unicode="f" horiz-adv-x="557" d="M28 932v128h149v120q0 145 64 208.5t195 63.5q74 0 125 -11v-135q-45 8 -79 8q-67 0 -97.5 -34t-30.5 -125v-95h207v-128h-207v-932h-177v932h-149z" />
<glyph unicode="g" d="M84 528q0 281 98.5 415t299.5 134q113 0 195.5 -51.5t128.5 -146.5h2q0 29 3.5 102t7.5 79h168q-6 -53 -6 -219v-811q0 -446 -444 -446q-173 0 -276 68t-133 193l178 26q17 -74 77.5 -113.5t158.5 -39.5q264 0 264 308v171h-2q-50 -102 -137.5 -153.5t-203.5 -51.5 q-195 0 -287 129.5t-92 406.5zM267 530q0 -217 57.5 -312.5t197.5 -95.5q84 0 148.5 49t100 141t35.5 218q0 130 -35.5 223.5t-99.5 143t-146 49.5q-135 0 -196.5 -98t-61.5 -318z" />
<glyph unicode="h" d="M139 0v1454h177v-378q0 -60 -3.5 -123.5t-4.5 -73.5h3q57 104 136.5 152.5t202.5 48.5q172 0 254 -86t82 -287v-707h-178v672q0 112 -20.5 166.5t-67.5 80t-130 25.5q-124 0 -199 -86.5t-75 -232.5v-625h-177z" />
<glyph unicode="i" horiz-adv-x="445" d="M134 0v1060h177v-1060h-177zM134 1286v168h177v-168h-177z" />
<glyph unicode="j" horiz-adv-x="445" d="M-49 -271l61 -6q67 0 94.5 35t27.5 137v1165h177v-1191q0 -150 -59 -217.5t-177 -67.5q-75 0 -124 8v137zM134 1286v168h177v-168h-177z" />
<glyph unicode="k" horiz-adv-x="1003" d="M135 0v1454h177v-908l465 514h207l-430 -455l452 -605h-206l-359 484l-129 -107v-377h-177z" />
<glyph unicode="l" horiz-adv-x="445" d="M135 0v1454h177v-1454h-177z" />
<glyph unicode="m" horiz-adv-x="1671" d="M133 1060h167q1 -5 2 -26.5t2.5 -49.5t3.5 -105h3q57 113 130 157t179 44q121 0 191 -48t97 -153h3q55 107 133 154t189 47q161 0 234 -87t73 -286v-707h-175v672q0 154 -42 213t-152 59q-116 0 -180 -86t-64 -244v-614h-174v672q0 154 -42.5 213t-151.5 59 q-113 0 -178.5 -86.5t-65.5 -243.5v-614h-176v834q0 185 -6 226z" />
<glyph unicode="n" d="M133 1060h167q1 -5 2 -26.5t2.5 -49.5t3.5 -105h3q60 110 140 155.5t199 45.5q174 0 255 -87t81 -286v-707h-178v672q0 105 -20.5 163t-65.5 83.5t-132 25.5q-127 0 -200.5 -87.5t-73.5 -242.5v-614h-177v834q0 185 -6 226z" />
<glyph unicode="o" d="M84 531q0 549 476 549q243 0 357.5 -134t114.5 -415q0 -278 -122.5 -414.5t-355.5 -136.5t-351.5 142t-118.5 409zM270 531q0 -210 68 -315t214 -105q158 0 226.5 102t68.5 318q0 220 -65.5 319.5t-218.5 99.5q-155 0 -224 -101.5t-69 -317.5z" />
<glyph unicode="p" d="M129 1060h171q1 -4 3 -28t4.5 -74t2.5 -68h4q47 98 124 143.5t204 45.5q196 0 293 -131.5t97 -412.5q0 -555 -390 -555q-245 0 -329 185h-5q4 -8 4 -167v-414h-177v1260q0 163 -6 216zM312 517q0 -208 66.5 -307t216.5 -99q131 0 191.5 96.5t60.5 323.5q0 222 -60 317 t-190 95q-105 0 -164.5 -44t-90 -138t-30.5 -244z" />
<glyph unicode="q" d="M84 525q0 555 390 555q121 0 199.5 -42.5t131.5 -141.5h2q0 29 3.5 101t7.5 77h170q-7 -58 -7 -289v-1201h-176v430l3 160h-1q-53 -104 -130.5 -149t-202.5 -45q-202 0 -296 136.5t-94 408.5zM270 531q0 -222 59 -318t190 -96q150 0 218 106.5t68 319.5q0 207 -68 307 t-216 100q-134 0 -192.5 -100t-58.5 -319z" />
<glyph unicode="r" horiz-adv-x="668" d="M133 1060h167q8 -180 8 -216h4q42 136 97 186t155 50q35 0 71 -10v-162q-35 10 -94 10q-110 0 -167.5 -94.5t-57.5 -270.5v-553h-177v813q0 112 -6 247z" />
<glyph unicode="s" horiz-adv-x="1003" d="M56 249l156 30q22 -85 92.5 -124.5t196.5 -39.5q134 0 196.5 41t62.5 123q0 63 -43.5 102t-139.5 65l-126 33q-152 39 -216 77t-100.5 92t-36.5 132q0 145 103.5 221t301.5 76q175 0 278.5 -61.5t130.5 -198.5l-158 -19q-15 70 -79 108t-172 38q-120 0 -176.5 -36.5 t-56.5 -109.5q0 -45 23.5 -74.5t69.5 -50t194 -57.5q140 -35 201.5 -65t97.5 -66t55.5 -83.5t19.5 -108.5q0 -150 -113 -231.5t-317 -81.5q-198 0 -305.5 65.5t-139.5 203.5z" />
<glyph unicode="t" horiz-adv-x="557" d="M30 932v128h130l52 238h117v-238h196v-128h-196v-669q0 -77 25 -108t87 -31q35 0 102 14v-130q-87 -24 -178 -24q-212 0 -212 240v708h-123z" />
<glyph unicode="u" d="M130 354v706h178v-672q0 -105 20.5 -162.5t65.5 -83t132 -25.5q128 0 201.5 87t73.5 242v614h176v-834q0 -185 6 -226h-167q-1 5 -2 26.5t-2.5 49.5t-3.5 105h-2q-61 -109 -141 -155t-199 -46q-174 0 -255 87t-81 287z" />
<glyph unicode="v" horiz-adv-x="1003" d="M7 1060h188l233 -690q13 -39 68 -232l34 115l38 115l241 692h188l-396 -1060h-209z" />
<glyph unicode="w" horiz-adv-x="1449" d="M-3 1060h175l179 -720q7 -23 42 -194l17 73l221 841h189l185 -728l46 -186l30 136l201 778h172l-303 -1060h-205l-186 750l-35 165q-9 -44 -27.5 -126.5t-199.5 -788.5h-204z" />
<glyph unicode="x" horiz-adv-x="1003" d="M23 0l377 545l-360 515h195l265 -412l262 412h197l-359 -513l382 -547h-197l-285 435l-287 -435h-190z" />
<glyph unicode="y" horiz-adv-x="1003" d="M5 1060h188l223 -586q5 -13 12 -32.5t44.5 -128t40.5 -121.5l68 193l232 675h187l-408 -1060q-66 -170 -122.5 -252.5t-126 -123t-156.5 -40.5q-72 0 -121 10v133q37 -6 82 -6q165 0 261 242l16 42z" />
<glyph unicode="z" horiz-adv-x="1003" d="M81 0v134l593 790h-559v136h768v-134l-594 -790h615v-136h-823z" />
<glyph unicode="{" horiz-adv-x="670" d="M33 457v124q107 4 159 60.5t52 170.5v355q0 138 65 212.5t194 74.5h132v-126h-62q-89 0 -126.5 -52.5t-37.5 -158.5v-349q0 -92 -52 -159t-138 -88v-2q87 -20 138.5 -86.5t51.5 -162.5v-349q0 -104 37.5 -157.5t126.5 -53.5h62v-126h-132q-125 0 -192 75t-67 212v353 q0 115 -51.5 171.5t-159.5 61.5z" />
<glyph unicode="|" horiz-adv-x="521" d="M179 -425v1879h163v-1879h-163z" />
<glyph unicode="}" horiz-adv-x="670" d="M33 -290h59q89 0 128 53.5t39 157.5v349q0 97 51 163.5t138 85.5v2q-84 20 -136.5 86t-52.5 161v349q0 106 -39 158.5t-128 52.5h-59v126h130q128 0 193 -74.5t65 -212.5v-355q0 -113 52 -170t161 -61v-124q-110 -4 -161.5 -61t-51.5 -172v-353q0 -136 -67 -211.5 t-191 -75.5h-130v126z" />
<glyph unicode="~" horiz-adv-x="1172" d="M90 568v141q109 82 258 82q51 0 113 -13t190 -58q30 -11 89 -27.5t103 -16.5q127 0 239 90v-146q-57 -41 -114.5 -59.5t-140.5 -18.5q-67 0 -138.5 21.5t-142.5 47.5q-127 44 -213 44q-65 0 -122 -20.5t-121 -66.5z" />
<glyph unicode="&#xa1;" horiz-adv-x="668" d="M237 -320l24 991h145l23 -991h-192zM241 863v197h190v-197h-190z" />
<glyph unicode="&#xa2;" d="M132 683q0 248 100 388.5t295 157.5v152h122v-152q140 -15 228 -96t115 -218l-182 -13q-13 88 -69 140t-159 52q-140 0 -202.5 -93.5t-62.5 -313.5q0 -212 66.5 -314t200.5 -102q94 0 157.5 51t77.5 157l179 -12q-19 -141 -112 -230t-237 -103v-164h-122v164 q-195 18 -295 157.5t-100 391.5z" />
<glyph unicode="&#xa3;" d="M57 612v127h182v274q0 191 101 289.5t293 98.5q144 0 242 -59t131 -166l-170 -56q-21 63 -75 99.5t-124 36.5q-112 0 -166.5 -56t-54.5 -179v-282h399v-127h-399v-123q0 -117 -45.5 -208t-120.5 -131h473q171 0 199 172l160 -17q-17 -147 -103 -226t-227 -79h-684v151 q87 45 129 123.5t42 196.5v141h-182z" />
<glyph unicode="&#xa4;" d="M111 323l100 100q-77 112 -77 247q0 136 77 247l-98 98l102 101l97 -99q111 81 249 81q134 0 246 -79l95 95l102 -103l-95 -94q79 -114 79 -247q0 -135 -81 -247l98 -98l-99 -103l-99 99q-112 -76 -246 -76q-141 0 -247 78l-103 -103zM285 672q0 -114 81.5 -194 t194.5 -80q111 0 192.5 79.5t81.5 194.5t-82 195.5t-192 80.5q-111 0 -193.5 -80t-82.5 -196z" />
<glyph unicode="&#xa5;" d="M-2 1381h195l364 -634l367 634h195l-413 -686h314v-123h-375v-151h375v-124h-375v-297h-175v297h-373v124h373l2 151h-375v123h314z" />
<glyph unicode="&#xa6;" horiz-adv-x="521" d="M179 338h163v-763h-163v763zM179 692v762h163v-762h-163z" />
<glyph unicode="&#xa7;" d="M113 98l157 30q20 -88 86.5 -128t208.5 -40q134 0 205 43t71 123q0 56 -32.5 94t-92.5 66.5t-208 64.5q-190 44 -274 120.5t-84 186.5q0 87 60 159.5t163 101.5q-94 32 -148 97.5t-54 149.5q0 136 103 212t302 76q170 0 274.5 -65t130.5 -189l-158 -20q-26 147 -247 147 q-122 0 -185.5 -38.5t-63.5 -108.5q0 -47 29.5 -81.5t84 -60t181.5 -55.5q144 -34 220.5 -75t119 -98.5t42.5 -137.5q0 -97 -58.5 -170.5t-156.5 -96.5q110 -47 159.5 -110.5t49.5 -152.5q0 -145 -113.5 -228t-319.5 -83q-204 0 -311.5 65.5t-140.5 201.5zM307 670 q0 -48 29 -83.5t83 -62t181 -58.5q116 1 182.5 50.5t66.5 133.5q0 70 -68.5 121t-240.5 91q-107 -5 -170 -57t-63 -135z" />
<glyph unicode="&#xa8;" horiz-adv-x="668" d="M44 1195v180h162v-180h-162zM430 1195v180h160v-180h-160z" />
<glyph unicode="&#xa9;" horiz-adv-x="1478" d="M30 693q0 189 95 353.5t260 259.5t354 95q190 0 355 -95.5t259 -259t94 -353.5q0 -189 -94.5 -354.5t-259.5 -260t-354 -94.5q-193 0 -359 98.5t-258 262t-92 348.5zM123 693q0 -166 83 -309t225 -225.5t308 -82.5t310 82.5t226 225.5t82 309q0 165 -82 307t-225.5 225 t-310.5 83q-165 0 -308 -82.5t-225.5 -225.5t-82.5 -307zM362 695q0 199 98 307t283 108q239 0 333 -204l-112 -33q-31 68 -88 101t-131 33q-125 0 -191 -78.5t-66 -233.5q0 -152 69.5 -236t192.5 -84q155 0 228 153l113 -34q-61 -119 -144 -170t-197 -51q-185 0 -286.5 111 t-101.5 311z" />
<glyph unicode="&#xaa;" horiz-adv-x="742" d="M25 853q0 113 77 174t229 63l175 4v58q0 80 -34.5 116t-113.5 36q-66 0 -105.5 -28.5t-48.5 -103.5l-146 10q16 104 93.5 162.5t204.5 58.5q142 0 216 -61t74 -184v-301q0 -57 13.5 -81.5t48.5 -24.5q18 0 42 8v-102q-48 -13 -82 -13q-71 0 -111 37t-43 101h-4 q-72 -144 -255 -144q-106 0 -168 57t-62 158zM172 865q0 -118 121 -118q88 0 150.5 57.5t62.5 135.5v64l-136 -4q-115 -6 -156.5 -38.5t-41.5 -96.5z" />
<glyph unicode="&#xab;" d="M81 496v62l330 363h163v-30l-328 -365l330 -359v-29h-165zM537 496v62l331 363h165v-30l-331 -365l333 -359v-29h-167z" />
<glyph unicode="&#xac;" horiz-adv-x="1172" d="M98 596v143h975v-563h-142v420h-833z" />
<glyph unicode="&#xad;" horiz-adv-x="668" d="M89 455v157h490v-157h-490z" />
<glyph unicode="&#xae;" horiz-adv-x="1478" d="M30 693q0 189 95 353.5t260 259.5t354 95q190 0 355 -95.5t259 -259t94 -353.5q0 -189 -94.5 -354.5t-259.5 -260t-354 -94.5q-193 0 -359 98.5t-258 262t-92 348.5zM123 693q0 -166 83 -309t225 -225.5t308 -82.5t310 82.5t226 225.5t82 309q0 165 -82 307t-225.5 225 t-310.5 83q-165 0 -308 -82.5t-225.5 -225.5t-82.5 -307zM459 283v815h301q139 0 213 -62t74 -171q0 -100 -51 -160t-135 -79l217 -343h-142l-195 329h-158v-329h-124zM583 707h178q79 0 120 41.5t41 114.5q0 68 -46.5 103.5t-125.5 35.5h-167v-295z" />
<glyph unicode="&#xaf;" horiz-adv-x="1108" d="M-17 1423v92h1142v-92h-1142z" />
<glyph unicode="&#xb0;" horiz-adv-x="802" d="M120 1122q0 115 81.5 197t199.5 82q117 0 199 -81t82 -198t-83 -198t-198 -81q-116 0 -198.5 82t-82.5 197zM226 1122q0 -72 51.5 -124t123.5 -52t123 51.5t51 124.5q0 75 -50.5 125.5t-123.5 50.5q-74 0 -124.5 -51.5t-50.5 -124.5z" />
<glyph unicode="&#xb1;" horiz-adv-x="1101" d="M64 0v142h975v-142h-975zM64 666v142h415v387h144v-387h416v-142h-416v-387h-144v387h-415z" />
<glyph unicode="&#xb2;" horiz-adv-x="668" d="M40 653q31 67 94 131.5t168 136.5q95 67 138 122t43 111q0 61 -34.5 98t-107.5 37q-67 0 -110 -36t-51 -102l-130 7q13 105 91.5 170t205.5 65q124 0 197 -60.5t73 -168.5q0 -144 -184 -279q-119 -88 -168 -133t-69 -90h434v-110h-588z" />
<glyph unicode="&#xb3;" horiz-adv-x="668" d="M26 762l134 13q17 -133 178 -133q157 0 157 145q0 134 -185 134h-60v107h56q78 0 123 35.5t45 98.5q0 59 -36 93t-106 34q-66 0 -107.5 -34.5t-47.5 -98.5l-132 12q13 107 90 166t201 59q128 0 200.5 -58.5t72.5 -154.5q0 -74 -42.5 -127.5t-130.5 -73.5v-2 q89 -9 141 -60.5t52 -137.5q0 -114 -76 -176.5t-215 -62.5q-280 0 -312 222z" />
<glyph unicode="&#xb4;" horiz-adv-x="668" d="M71 1177v20l212 281h203v-29l-323 -272h-92z" />
<glyph unicode="&#xb5;" horiz-adv-x="1156" d="M137 -416v1476h178v-672q0 -135 52 -203t169 -68q126 0 197.5 85t71.5 244v614h176v-799q0 -75 17.5 -108.5t58.5 -33.5q25 0 53 7v-126q-63 -20 -110 -20q-90 0 -136.5 46.5t-51.5 144.5h-3q-103 -191 -293 -191q-65 0 -118.5 20.5t-83.5 57.5v-474h-177z" />
<glyph unicode="&#xb6;" horiz-adv-x="1078" d="M78 1028q0 166 96.5 259.5t266.5 93.5h552v-100h-127v-1540h-109v1540h-213v-1540h-111v939q-164 0 -259.5 90.5t-95.5 257.5z" />
<glyph unicode="&#xb7;" horiz-adv-x="668" d="M238 437v216h191v-216h-191z" />
<glyph unicode="&#xb8;" horiz-adv-x="668" d="M117 -325q48 -6 84 -6q144 0 144 79q0 76 -130 76q-43 0 -56 -2l63 178h105l-38 -98q92 -3 138 -42.5t46 -107.5q0 -177 -268 -177q-56 0 -88 4v96z" />
<glyph unicode="&#xb9;" horiz-adv-x="668" d="M78 552v105h207v607l-198 -135v118l206 134h121v-724h210v-105h-546z" />
<glyph unicode="&#xba;" horiz-adv-x="733" d="M26 1021q0 185 87.5 283.5t254.5 98.5q341 0 341 -382q0 -184 -86.5 -283.5t-257.5 -99.5q-165 0 -252 98.5t-87 284.5zM175 1021q0 -142 45 -211t144 -69q108 0 153.5 67.5t45.5 212.5q0 151 -45 215t-147 64q-105 0 -150.5 -66t-45.5 -213z" />
<glyph unicode="&#xbb;" d="M81 138v29l332 359l-330 365v30h165l328 -363v-62l-328 -358h-167zM539 138v29l331 359l-329 365v30h163l331 -363v-62l-331 -358h-165z" />
<glyph unicode="&#xbc;" horiz-adv-x="1673" d="M54 552v105h207v607l-198 -135v118l206 134h121v-724h210v-105h-546zM338 0l864 1381h142l-861 -1381h-145zM947 176v109l378 546h148v-544h109v-111h-109v-174h-128v174h-398zM1071 287h274v353l2 60q-21 -39 -81 -132z" />
<glyph unicode="&#xbd;" horiz-adv-x="1673" d="M54 552v105h207v607l-198 -135v118l206 134h121v-724h210v-105h-546zM338 0l864 1381h142l-861 -1381h-145zM1030 103q31 67 94 131.5t168 136.5q95 67 138 122t43 111q0 61 -34.5 98t-107.5 37q-67 0 -110 -36t-51 -102l-130 7q13 105 91.5 170t205.5 65 q124 0 197 -60.5t73 -168.5q0 -144 -184 -279q-119 -88 -168 -133t-69 -90h434v-110h-588z" />
<glyph unicode="&#xbe;" horiz-adv-x="1673" d="M71 762l134 13q17 -133 178 -133q157 0 157 145q0 134 -185 134h-60v107h56q78 0 123 35.5t45 98.5q0 59 -36 93t-106 34q-66 0 -107.5 -34.5t-47.5 -98.5l-132 12q13 107 90 166t201 59q128 0 200.5 -58.5t72.5 -154.5q0 -74 -42.5 -127.5t-130.5 -73.5v-2 q89 -9 141 -60.5t52 -137.5q0 -114 -76 -176.5t-215 -62.5q-280 0 -312 222zM357 0l864 1381h142l-861 -1381h-145zM947 176v109l378 546h148v-544h109v-111h-109v-174h-128v174h-398zM1071 287h274v353l2 60q-21 -39 -81 -132z" />
<glyph unicode="&#xbf;" horiz-adv-x="1225" d="M128 49q0 73 22 131t62 107t131 116l79 58q70 51 104.5 107t35.5 123h171q-2 -68 -21 -119t-49.5 -90t-68.5 -70t-77.5 -59t-77 -55.5t-67 -62t-47.5 -77.5t-18 -101q0 -112 76 -176.5t213 -64.5t217.5 68.5t93.5 188.5l181 -12q-26 -194 -153 -298t-337 -104 q-219 0 -344.5 103.5t-125.5 286.5zM550 863v197h191v-197h-191z" />
<glyph unicode="&#xc0;" horiz-adv-x="1338" d="M4 0l563 1381h213l555 -1381h-191l-158 404h-629l-159 -404h-194zM414 550h516l-177 455q-28 68 -55 153l-27 82l-9 -28q-24 -81 -72 -208zM431 1712v28h203l212 -221v-20h-111z" />
<glyph unicode="&#xc1;" horiz-adv-x="1338" d="M4 0l563 1381h213l555 -1381h-191l-158 404h-629l-159 -404h-194zM414 550h516l-177 455q-28 68 -55 153l-27 82l-9 -28q-24 -81 -72 -208zM537 1499v20l212 221h203v-28l-304 -213h-111z" />
<glyph unicode="&#xc2;" horiz-adv-x="1338" d="M4 0l563 1381h213l555 -1381h-191l-158 404h-629l-159 -404h-194zM345 1499v20l229 235h200l220 -235v-20h-103l-215 137h-2l-227 -137h-102zM414 550h516l-177 455q-28 68 -55 153l-27 82l-9 -28q-24 -81 -72 -208z" />
<glyph unicode="&#xc3;" horiz-adv-x="1338" d="M4 0l563 1381h213l555 -1381h-191l-158 404h-629l-159 -404h-194zM320 1499q11 100 34.5 151.5t63.5 81.5t101 30q44 0 85 -18t79 -40t72 -40.5t63 -18.5q98 0 115 117h90q-17 -145 -66 -204t-132 -59q-41 0 -82 18.5t-79.5 40.5t-73 40t-65.5 18q-54 0 -80.5 -30.5 t-34.5 -86.5h-90zM414 550h516l-177 455q-28 68 -55 153l-27 82l-9 -28q-24 -81 -72 -208z" />
<glyph unicode="&#xc4;" horiz-adv-x="1338" d="M4 0l563 1381h213l555 -1381h-191l-158 404h-629l-159 -404h-194zM401 1499v181h162v-181h-162zM414 550h516l-177 455q-28 68 -55 153l-27 82l-9 -28q-24 -81 -72 -208zM787 1499v181h160v-181h-160z" />
<glyph unicode="&#xc5;" horiz-adv-x="1338" d="M4 0l563 1381h213l555 -1381h-191l-158 404h-629l-159 -404h-194zM414 550h516l-177 455q-28 68 -55 153l-27 82l-9 -28q-24 -81 -72 -208zM435 1515q0 99 69.5 167.5t167.5 68.5q97 0 167 -69t70 -167t-69.5 -167.5t-167.5 -69.5t-167.5 69.5t-69.5 167.5zM540 1515 q0 -54 37 -94t95 -40q57 0 94 39.5t37 94.5t-38 93t-93 38q-56 0 -94 -38t-38 -93z" />
<glyph unicode="&#xc6;" horiz-adv-x="2007" d="M24 0l672 1381h1185v-153h-744v-443h685v-151h-685v-481h784v-153h-971v404h-537l-194 -404h-195zM481 550h469v687h-148l-28 -62z" />
<glyph unicode="&#xc7;" horiz-adv-x="1449" d="M102 697q0 330 178.5 517t493.5 187q221 0 369 -86t217 -256l-177 -58q-48 120 -154.5 184t-252.5 64q-229 0 -356.5 -147.5t-127.5 -404.5q0 -254 133 -408.5t359 -154.5q290 0 436 287l153 -76q-85 -178 -239.5 -271.5t-358.5 -93.5q-209 0 -361 87t-232 248t-80 382z M617 -325q48 -6 84 -6q144 0 144 79q0 76 -130 76q-43 0 -56 -2l63 178h105l-38 -98q92 -3 138 -42.5t46 -107.5q0 -177 -268 -177q-56 0 -88 4v96z" />
<glyph unicode="&#xc8;" horiz-adv-x="1338" d="M165 0v1381h1047v-153h-860v-443h801v-151h-801v-481h900v-153h-1087zM417 1712v28h203l212 -221v-20h-111z" />
<glyph unicode="&#xc9;" horiz-adv-x="1338" d="M165 0v1381h1047v-153h-860v-443h801v-151h-801v-481h900v-153h-1087zM540 1499v20l212 221h203v-28l-304 -213h-111z" />
<glyph unicode="&#xca;" horiz-adv-x="1338" d="M165 0v1381h1047v-153h-860v-443h801v-151h-801v-481h900v-153h-1087zM368 1499v20l229 235h200l220 -235v-20h-103l-215 137h-2l-227 -137h-102z" />
<glyph unicode="&#xcb;" horiz-adv-x="1338" d="M165 0v1381h1047v-153h-860v-443h801v-151h-801v-481h900v-153h-1087zM413 1499v181h162v-181h-162zM799 1499v181h160v-181h-160z" />
<glyph unicode="&#xcc;" horiz-adv-x="557" d="M9 1712v28h203l212 -221v-20h-111zM185 0v1381h187v-1381h-187z" />
<glyph unicode="&#xcd;" horiz-adv-x="557" d="M140 1499v20l212 221h203v-28l-304 -213h-111zM185 0v1381h187v-1381h-187z" />
<glyph unicode="&#xce;" horiz-adv-x="557" d="M-45 1499v20l229 235h200l220 -235v-20h-103l-215 137h-2l-227 -137h-102zM185 0v1381h187v-1381h-187z" />
<glyph unicode="&#xcf;" horiz-adv-x="557" d="M7 1499v181h162v-181h-162zM185 0v1381h187v-1381h-187zM393 1499v181h160v-181h-160z" />
<glyph unicode="&#xd0;" horiz-adv-x="1449" d="M14 634v151h151v596h456q351 0 541.5 -176t190.5 -500q0 -214 -83 -374t-236 -245.5t-353 -85.5h-516v634h-151zM352 150h308q151 0 266.5 66.5t177 192t61.5 296.5q0 256 -140.5 391t-407.5 135h-265v-446h398v-151h-398v-484z" />
<glyph unicode="&#xd1;" horiz-adv-x="1449" d="M165 0v1381h217l747 -1184q-12 192 -12 278v906h169v-1381h-226l-739 1176l5 -95l5 -164v-917h-166zM386 1499q11 100 34.5 151.5t63.5 81.5t101 30q44 0 85 -18t79 -40t72 -40.5t63 -18.5q98 0 115 117h90q-17 -145 -66 -204t-132 -59q-41 0 -82 18.5t-79.5 40.5t-73 40 t-65.5 18q-54 0 -80.5 -30.5t-34.5 -86.5h-90z" />
<glyph unicode="&#xd2;" horiz-adv-x="1561" d="M95 697q0 331 181.5 517.5t504.5 186.5q211 0 365.5 -83.5t236.5 -243.5t82 -377t-83 -379.5t-237.5 -250t-365.5 -87.5q-213 0 -367 86.5t-235.5 249.5t-81.5 381zM285 697q0 -260 131 -412.5t363 -152.5q239 0 367 147.5t128 417.5q0 258 -129 405t-364 147 q-237 0 -366.5 -145.5t-129.5 -406.5zM533 1712v28h203l212 -221v-20h-111z" />
<glyph unicode="&#xd3;" horiz-adv-x="1561" d="M95 697q0 331 181.5 517.5t504.5 186.5q211 0 365.5 -83.5t236.5 -243.5t82 -377t-83 -379.5t-237.5 -250t-365.5 -87.5q-213 0 -367 86.5t-235.5 249.5t-81.5 381zM285 697q0 -260 131 -412.5t363 -152.5q239 0 367 147.5t128 417.5q0 258 -129 405t-364 147 q-237 0 -366.5 -145.5t-129.5 -406.5zM609 1499v20l212 221h203v-28l-304 -213h-111z" />
<glyph unicode="&#xd4;" horiz-adv-x="1561" d="M95 697q0 331 181.5 517.5t504.5 186.5q211 0 365.5 -83.5t236.5 -243.5t82 -377t-83 -379.5t-237.5 -250t-365.5 -87.5q-213 0 -367 86.5t-235.5 249.5t-81.5 381zM285 697q0 -260 131 -412.5t363 -152.5q239 0 367 147.5t128 417.5q0 258 -129 405t-364 147 q-237 0 -366.5 -145.5t-129.5 -406.5zM460 1499v20l229 235h200l220 -235v-20h-103l-215 137h-2l-227 -137h-102z" />
<glyph unicode="&#xd5;" horiz-adv-x="1561" d="M95 697q0 331 181.5 517.5t504.5 186.5q211 0 365.5 -83.5t236.5 -243.5t82 -377t-83 -379.5t-237.5 -250t-365.5 -87.5q-213 0 -367 86.5t-235.5 249.5t-81.5 381zM285 697q0 -260 131 -412.5t363 -152.5q239 0 367 147.5t128 417.5q0 258 -129 405t-364 147 q-237 0 -366.5 -145.5t-129.5 -406.5zM417 1499q11 100 34.5 151.5t63.5 81.5t101 30q44 0 85 -18t79 -40t72 -40.5t63 -18.5q98 0 115 117h90q-17 -145 -66 -204t-132 -59q-41 0 -82 18.5t-79.5 40.5t-73 40t-65.5 18q-54 0 -80.5 -30.5t-34.5 -86.5h-90z" />
<glyph unicode="&#xd6;" horiz-adv-x="1561" d="M95 697q0 331 181.5 517.5t504.5 186.5q211 0 365.5 -83.5t236.5 -243.5t82 -377t-83 -379.5t-237.5 -250t-365.5 -87.5q-213 0 -367 86.5t-235.5 249.5t-81.5 381zM285 697q0 -260 131 -412.5t363 -152.5q239 0 367 147.5t128 417.5q0 258 -129 405t-364 147 q-237 0 -366.5 -145.5t-129.5 -406.5zM506 1499v181h162v-181h-162zM892 1499v181h160v-181h-160z" />
<glyph unicode="&#xd7;" horiz-adv-x="1172" d="M139 323l347 347l-345 345l102 101l343 -346l343 344l103 -103l-343 -341l345 -345l-100 -103l-346 346l-349 -348z" />
<glyph unicode="&#xd8;" horiz-adv-x="1561" d="M70 -52l196 236q-171 188 -171 513q0 331 181.5 517.5t504.5 186.5q242 0 406 -107l118 143h189l-197 -237q168 -187 168 -503q0 -217 -83 -379.5t-237.5 -250t-365.5 -87.5q-241 0 -406 110l-117 -142h-186zM285 697q0 -225 99 -371l693 836q-121 87 -296 87 q-237 0 -366.5 -145.5t-129.5 -406.5zM483 221q120 -89 296 -89q239 0 367 147.5t128 417.5q0 219 -96 360z" />
<glyph unicode="&#xd9;" horiz-adv-x="1449" d="M155 502v879h187v-864q0 -189 96 -287t277 -98q187 0 290 101.5t103 296.5v851h187v-862q0 -167 -71.5 -288.5t-201 -186t-306.5 -64.5q-169 0 -295.5 62t-196 179.5t-69.5 280.5zM493 1712v28h203l212 -221v-20h-111z" />
<glyph unicode="&#xda;" horiz-adv-x="1449" d="M155 502v879h187v-864q0 -189 96 -287t277 -98q187 0 290 101.5t103 296.5v851h187v-862q0 -167 -71.5 -288.5t-201 -186t-306.5 -64.5q-169 0 -295.5 62t-196 179.5t-69.5 280.5zM554 1499v20l212 221h203v-28l-304 -213h-111z" />
<glyph unicode="&#xdb;" horiz-adv-x="1449" d="M155 502v879h187v-864q0 -189 96 -287t277 -98q187 0 290 101.5t103 296.5v851h187v-862q0 -167 -71.5 -288.5t-201 -186t-306.5 -64.5q-169 0 -295.5 62t-196 179.5t-69.5 280.5zM400 1499v20l229 235h200l220 -235v-20h-103l-215 137h-2l-227 -137h-102z" />
<glyph unicode="&#xdc;" horiz-adv-x="1449" d="M155 502v879h187v-864q0 -189 96 -287t277 -98q187 0 290 101.5t103 296.5v851h187v-862q0 -167 -71.5 -288.5t-201 -186t-306.5 -64.5q-169 0 -295.5 62t-196 179.5t-69.5 280.5zM450 1499v181h162v-181h-162zM836 1499v181h160v-181h-160z" />
<glyph unicode="&#xdd;" horiz-adv-x="1338" d="M44 1381h206l420 -658l419 658h206l-534 -809v-572h-186v572zM526 1499v20l212 221h203v-28l-304 -213h-111z" />
<glyph unicode="&#xde;" horiz-adv-x="1338" d="M165 0v1381h187v-247h394q234 0 360.5 -109t126.5 -305q0 -125 -57 -222.5t-164 -152t-254 -54.5h-406v-291h-187zM352 429h379q150 0 232 76t82 211q0 132 -80.5 205t-241.5 73h-371v-565z" />
<glyph unicode="&#xdf;" horiz-adv-x="1225" d="M139 0v1006q0 223 115 335.5t343 112.5q186 0 296.5 -78.5t110.5 -212.5q0 -140 -111 -241q-78 -70 -94.5 -94t-16.5 -53q0 -37 27 -66t67 -57t87 -59q181 -122 181 -304q0 -147 -92.5 -228t-258.5 -81q-168 0 -278 48l-1 161q50 -28 128.5 -47.5t146.5 -19.5 q90 0 138 42t48 119q0 63 -41.5 113t-136.5 107q-90 53 -135 117.5t-45 148.5q0 60 28 109t81 93q57 47 83 88.5t26 90.5q0 75 -65.5 120.5t-172.5 45.5q-145 0 -213 -78.5t-68 -236.5v-1001h-177z" />
<glyph unicode="&#xe0;" d="M85 296q0 165 108.5 253t349.5 94l238 4v58q0 129 -55 185t-172 56q-119 0 -173 -40.5t-64 -128.5l-185 17q45 286 426 286q200 0 300.5 -91.5t100.5 -265.5v-456q0 -79 21 -118.5t78 -39.5q26 0 58 7v-110q-66 -16 -136 -16q-98 0 -142.5 51.5t-50.5 161.5h-6 q-68 -122 -157.5 -172.5t-217.5 -50.5q-160 0 -240.5 84.5t-80.5 231.5zM267 293q0 -86 46.5 -133t132.5 -47q97 0 172.5 44t119 121t43.5 158v87l-193 -4q-124 -2 -188.5 -25.5t-98.5 -72.5t-34 -128zM288 1449v29h203l212 -281v-20h-92z" />
<glyph unicode="&#xe1;" d="M85 296q0 165 108.5 253t349.5 94l238 4v58q0 129 -55 185t-172 56q-119 0 -173 -40.5t-64 -128.5l-185 17q45 286 426 286q200 0 300.5 -91.5t100.5 -265.5v-456q0 -79 21 -118.5t78 -39.5q26 0 58 7v-110q-66 -16 -136 -16q-98 0 -142.5 51.5t-50.5 161.5h-6 q-68 -122 -157.5 -172.5t-217.5 -50.5q-160 0 -240.5 84.5t-80.5 231.5zM267 293q0 -86 46.5 -133t132.5 -47q97 0 172.5 44t119 121t43.5 158v87l-193 -4q-124 -2 -188.5 -25.5t-98.5 -72.5t-34 -128zM404 1177v20l212 281h203v-29l-323 -272h-92z" />
<glyph unicode="&#xe2;" d="M85 296q0 165 108.5 253t349.5 94l238 4v58q0 129 -55 185t-172 56q-119 0 -173 -40.5t-64 -128.5l-185 17q45 286 426 286q200 0 300.5 -91.5t100.5 -265.5v-456q0 -79 21 -118.5t78 -39.5q26 0 58 7v-110q-66 -16 -136 -16q-98 0 -142.5 51.5t-50.5 161.5h-6 q-68 -122 -157.5 -172.5t-217.5 -50.5q-160 0 -240.5 84.5t-80.5 231.5zM214 1177v20l229 264h200l220 -264v-20h-103l-215 166h-2l-227 -166h-102zM267 293q0 -86 46.5 -133t132.5 -47q97 0 172.5 44t119 121t43.5 158v87l-193 -4q-124 -2 -188.5 -25.5t-98.5 -72.5 t-34 -128z" />
<glyph unicode="&#xe3;" d="M85 296q0 165 108.5 253t349.5 94l238 4v58q0 129 -55 185t-172 56q-119 0 -173 -40.5t-64 -128.5l-185 17q45 286 426 286q200 0 300.5 -91.5t100.5 -265.5v-456q0 -79 21 -118.5t78 -39.5q26 0 58 7v-110q-66 -16 -136 -16q-98 0 -142.5 51.5t-50.5 161.5h-6 q-68 -122 -157.5 -172.5t-217.5 -50.5q-160 0 -240.5 84.5t-80.5 231.5zM217 1177q11 100 34.5 151.5t63.5 81.5t101 30q44 0 85 -18.5t79 -40.5t72 -40t63 -18q98 0 115 117h90q-17 -145 -66 -204t-132 -59q-41 0 -82 18t-79.5 40t-73 40.5t-65.5 18.5q-54 0 -80.5 -30.5 t-34.5 -86.5h-90zM267 293q0 -86 46.5 -133t132.5 -47q97 0 172.5 44t119 121t43.5 158v87l-193 -4q-124 -2 -188.5 -25.5t-98.5 -72.5t-34 -128z" />
<glyph unicode="&#xe4;" d="M85 296q0 165 108.5 253t349.5 94l238 4v58q0 129 -55 185t-172 56q-119 0 -173 -40.5t-64 -128.5l-185 17q45 286 426 286q200 0 300.5 -91.5t100.5 -265.5v-456q0 -79 21 -118.5t78 -39.5q26 0 58 7v-110q-66 -16 -136 -16q-98 0 -142.5 51.5t-50.5 161.5h-6 q-68 -122 -157.5 -172.5t-217.5 -50.5q-160 0 -240.5 84.5t-80.5 231.5zM267 293q0 -86 46.5 -133t132.5 -47q97 0 172.5 44t119 121t43.5 158v87l-193 -4q-124 -2 -188.5 -25.5t-98.5 -72.5t-34 -128zM274 1195v180h162v-180h-162zM660 1195v180h160v-180h-160z" />
<glyph unicode="&#xe5;" d="M85 296q0 165 108.5 253t349.5 94l238 4v58q0 129 -55 185t-172 56q-119 0 -173 -40.5t-64 -128.5l-185 17q45 286 426 286q200 0 300.5 -91.5t100.5 -265.5v-456q0 -79 21 -118.5t78 -39.5q26 0 58 7v-110q-66 -16 -136 -16q-98 0 -142.5 51.5t-50.5 161.5h-6 q-68 -122 -157.5 -172.5t-217.5 -50.5q-160 0 -240.5 84.5t-80.5 231.5zM267 293q0 -86 46.5 -133t132.5 -47q97 0 172.5 44t119 121t43.5 158v87l-193 -4q-124 -2 -188.5 -25.5t-98.5 -72.5t-34 -128zM309 1382q0 99 69.5 167.5t167.5 68.5q97 0 167 -69t70 -167 t-69.5 -167.5t-167.5 -69.5t-167.5 69.5t-69.5 167.5zM414 1382q0 -54 37 -94t95 -40q57 0 94 39.5t37 94.5t-38 93t-93 38q-56 0 -94 -38t-38 -93z" />
<glyph unicode="&#xe6;" horiz-adv-x="1784" d="M65 296q0 170 116.5 256.5t353.5 90.5l235 4v58q0 132 -54 186.5t-173 54.5q-124 0 -179 -39.5t-68 -129.5l-184 17q45 286 435 286q245 0 342 -136q115 136 339 136q467 0 467 -564v-23h-746v-17q2 -177 75.5 -270t210.5 -93q114 0 183.5 46t93.5 116l155 -44 q-95 -251 -432 -251q-315 0 -415 252q-77 -137 -180 -194.5t-246 -57.5q-164 0 -246.5 84.5t-82.5 231.5zM246 293q0 -85 49 -132.5t140 -47.5q100 0 175 43.5t117.5 119.5t42.5 160v87l-191 -4q-130 -3 -199 -28.5t-101.5 -75t-32.5 -122.5zM951 628h562q-15 168 -85.5 245 t-202.5 77q-124 0 -196.5 -84t-77.5 -238z" />
<glyph unicode="&#xe7;" horiz-adv-x="1003" d="M85 531q0 268 117.5 408.5t337.5 140.5q163 0 270 -84.5t135 -232.5l-182 -13q-13 88 -69 140t-159 52q-140 0 -202.5 -93t-62.5 -314q0 -212 66.5 -313.5t200.5 -101.5q94 0 157.5 50.5t77.5 156.5l179 -11q-21 -153 -131 -244.5t-278 -91.5q-223 0 -340 141t-117 410z M380 -325q48 -6 84 -6q144 0 144 79q0 76 -130 76q-43 0 -56 -2l63 178h105l-38 -98q92 -3 138 -42.5t46 -107.5q0 -177 -268 -177q-56 0 -88 4v96z" />
<glyph unicode="&#xe8;" d="M85 537q0 263 123 403t352 140q467 0 467 -564v-23h-757q0 -182 75.5 -281t220.5 -99q115 0 184 46t94 116l155 -44q-95 -251 -433 -251q-235 0 -358 140.5t-123 416.5zM272 628h573q-15 168 -85.5 245t-202.5 77q-129 0 -204 -86t-81 -236zM321 1449v29h203l212 -281 v-20h-92z" />
<glyph unicode="&#xe9;" d="M85 537q0 263 123 403t352 140q467 0 467 -564v-23h-757q0 -182 75.5 -281t220.5 -99q115 0 184 46t94 116l155 -44q-95 -251 -433 -251q-235 0 -358 140.5t-123 416.5zM272 628h573q-15 168 -85.5 245t-202.5 77q-129 0 -204 -86t-81 -236zM432 1177v20l212 281h203v-29 l-323 -272h-92z" />
<glyph unicode="&#xea;" d="M85 537q0 263 123 403t352 140q467 0 467 -564v-23h-757q0 -182 75.5 -281t220.5 -99q115 0 184 46t94 116l155 -44q-95 -251 -433 -251q-235 0 -358 140.5t-123 416.5zM240 1177v20l229 264h200l220 -264v-20h-103l-215 166h-2l-227 -166h-102zM272 628h573 q-15 168 -85.5 245t-202.5 77q-129 0 -204 -86t-81 -236z" />
<glyph unicode="&#xeb;" d="M85 537q0 263 123 403t352 140q467 0 467 -564v-23h-757q0 -182 75.5 -281t220.5 -99q115 0 184 46t94 116l155 -44q-95 -251 -433 -251q-235 0 -358 140.5t-123 416.5zM272 628h573q-15 168 -85.5 245t-202.5 77q-129 0 -204 -86t-81 -236zM287 1195v180h162v-180h-162z M673 1195v180h160v-180h-160z" />
<glyph unicode="&#xec;" horiz-adv-x="557" d="M10 1449v29h203l212 -281v-20h-92zM190 0v1060h177v-1060h-177z" />
<glyph unicode="&#xed;" horiz-adv-x="557" d="M133 1177v20l212 281h203v-29l-323 -272h-92zM190 0v1060h177v-1060h-177z" />
<glyph unicode="&#xee;" horiz-adv-x="557" d="M-44 1177v20l229 264h200l220 -264v-20h-103l-215 166h-2l-227 -166h-102zM190 0v1060h177v-1060h-177z" />
<glyph unicode="&#xef;" horiz-adv-x="557" d="M8 1195v180h162v-180h-162zM190 0v1060h177v-1060h-177zM394 1195v180h160v-180h-160z" />
<glyph unicode="&#xf0;" d="M84 471q0 239 121.5 363.5t356.5 124.5q134 0 226 -57q-107 212 -229 324l-295 -130v111l213 92q-107 86 -237 155h205q78 -35 167 -100l299 130l-1 -110l-206 -90q167 -153 252.5 -352t85.5 -426v-6q0 -256 -122 -388t-365 -132q-228 0 -349.5 126.5t-121.5 364.5z M270 471q0 -186 70.5 -273t212.5 -87q157 0 230.5 85.5t73.5 274.5t-69.5 273.5t-222.5 84.5t-224 -85t-71 -273z" />
<glyph unicode="&#xf1;" d="M137 1060h167q1 -5 2 -26.5t2.5 -49.5t3.5 -105h3q60 110 140 155.5t199 45.5q174 0 255 -87t81 -286v-707h-178v672q0 105 -20.5 163t-65.5 83.5t-132 25.5q-127 0 -200.5 -87.5t-73.5 -242.5v-614h-177v834q0 185 -6 226zM217 1177q11 100 34.5 151.5t63.5 81.5t101 30 q44 0 85 -18.5t79 -40.5t72 -40t63 -18q98 0 115 117h90q-17 -145 -66 -204t-132 -59q-41 0 -82 18t-79.5 40t-73 40.5t-65.5 18.5q-54 0 -80.5 -30.5t-34.5 -86.5h-90z" />
<glyph unicode="&#xf2;" d="M84 531q0 549 476 549q243 0 357.5 -134t114.5 -415q0 -278 -122.5 -414.5t-355.5 -136.5t-351.5 142t-118.5 409zM270 531q0 -210 68 -315t214 -105q158 0 226.5 102t68.5 318q0 220 -65.5 319.5t-218.5 99.5q-155 0 -224 -101.5t-69 -317.5zM323 1449v29h203l212 -281 v-20h-92z" />
<glyph unicode="&#xf3;" d="M84 531q0 549 476 549q243 0 357.5 -134t114.5 -415q0 -278 -122.5 -414.5t-355.5 -136.5t-351.5 142t-118.5 409zM270 531q0 -210 68 -315t214 -105q158 0 226.5 102t68.5 318q0 220 -65.5 319.5t-218.5 99.5q-155 0 -224 -101.5t-69 -317.5zM423 1177v20l212 281h203 v-29l-323 -272h-92z" />
<glyph unicode="&#xf4;" d="M84 531q0 549 476 549q243 0 357.5 -134t114.5 -415q0 -278 -122.5 -414.5t-355.5 -136.5t-351.5 142t-118.5 409zM235 1177v20l229 264h200l220 -264v-20h-103l-215 166h-2l-227 -166h-102zM270 531q0 -210 68 -315t214 -105q158 0 226.5 102t68.5 318 q0 220 -65.5 319.5t-218.5 99.5q-155 0 -224 -101.5t-69 -317.5z" />
<glyph unicode="&#xf5;" d="M84 531q0 549 476 549q243 0 357.5 -134t114.5 -415q0 -278 -122.5 -414.5t-355.5 -136.5t-351.5 142t-118.5 409zM219 1177q11 100 34.5 151.5t63.5 81.5t101 30q44 0 85 -18.5t79 -40.5t72 -40t63 -18q98 0 115 117h90q-17 -145 -66 -204t-132 -59q-41 0 -82 18 t-79.5 40t-73 40.5t-65.5 18.5q-54 0 -80.5 -30.5t-34.5 -86.5h-90zM270 531q0 -210 68 -315t214 -105q158 0 226.5 102t68.5 318q0 220 -65.5 319.5t-218.5 99.5q-155 0 -224 -101.5t-69 -317.5z" />
<glyph unicode="&#xf6;" d="M84 531q0 549 476 549q243 0 357.5 -134t114.5 -415q0 -278 -122.5 -414.5t-355.5 -136.5t-351.5 142t-118.5 409zM270 531q0 -210 68 -315t214 -105q158 0 226.5 102t68.5 318q0 220 -65.5 319.5t-218.5 99.5q-155 0 -224 -101.5t-69 -317.5zM289 1195v180h162v-180 h-162zM675 1195v180h160v-180h-160z" />
<glyph unicode="&#xf7;" horiz-adv-x="1101" d="M64 596v143h975v-143h-975zM468 219v179h165v-179h-165zM468 939v179h165v-179h-165z" />
<glyph unicode="&#xf8;" horiz-adv-x="1225" d="M43 -37l180 209q-81 136 -81 359q0 549 475 549q197 0 310 -89l89 103h164l-170 -197q80 -131 80 -366q0 -278 -122.5 -414.5t-355.5 -136.5q-192 0 -307 96l-98 -113h-164zM327 531q0 -127 24 -211l472 550q-65 80 -203 80q-154 0 -223.5 -101.5t-69.5 -317.5zM409 197 q66 -86 201 -86q158 0 226.5 102t68.5 318q0 127 -23 217z" />
<glyph unicode="&#xf9;" d="M136 354v706h178v-672q0 -105 20.5 -162.5t65.5 -83t132 -25.5q128 0 201.5 87t73.5 242v614h176v-834q0 -185 6 -226h-167q-1 5 -2 26.5t-2.5 49.5t-3.5 105h-2q-61 -109 -141 -155t-199 -46q-174 0 -255 87t-81 287zM335 1449v29h203l212 -281v-20h-92z" />
<glyph unicode="&#xfa;" d="M136 354v706h178v-672q0 -105 20.5 -162.5t65.5 -83t132 -25.5q128 0 201.5 87t73.5 242v614h176v-834q0 -185 6 -226h-167q-1 5 -2 26.5t-2.5 49.5t-3.5 105h-2q-61 -109 -141 -155t-199 -46q-174 0 -255 87t-81 287zM407 1177v20l212 281h203v-29l-323 -272h-92z" />
<glyph unicode="&#xfb;" d="M136 354v706h178v-672q0 -105 20.5 -162.5t65.5 -83t132 -25.5q128 0 201.5 87t73.5 242v614h176v-834q0 -185 6 -226h-167q-1 5 -2 26.5t-2.5 49.5t-3.5 105h-2q-61 -109 -141 -155t-199 -46q-174 0 -255 87t-81 287zM234 1177v20l229 264h200l220 -264v-20h-103 l-215 166h-2l-227 -166h-102z" />
<glyph unicode="&#xfc;" d="M136 354v706h178v-672q0 -105 20.5 -162.5t65.5 -83t132 -25.5q128 0 201.5 87t73.5 242v614h176v-834q0 -185 6 -226h-167q-1 5 -2 26.5t-2.5 49.5t-3.5 105h-2q-61 -109 -141 -155t-199 -46q-174 0 -255 87t-81 287zM276 1195v180h162v-180h-162zM662 1195v180h160 v-180h-160z" />
<glyph unicode="&#xfd;" horiz-adv-x="1003" d="M5 1060h188l223 -586q5 -13 12 -32.5t44.5 -128t40.5 -121.5l68 193l232 675h187l-408 -1060q-66 -170 -122.5 -252.5t-126 -123t-156.5 -40.5q-72 0 -121 10v133q37 -6 82 -6q165 0 261 242l16 42zM348 1177v20l212 281h203v-29l-323 -272h-92z" />
<glyph unicode="&#xfe;" d="M135 -416v1870h177v-414q0 -64 -4 -150h6q47 98 124 143.5t204 45.5q196 0 293 -131.5t97 -412.5q0 -555 -390 -555q-245 0 -329 185h-5q4 -8 4 -167v-414h-177zM312 517q0 -208 66.5 -307t216.5 -99q131 0 191.5 96.5t60.5 323.5q0 222 -60 317t-190 95 q-105 0 -164.5 -44t-90 -138t-30.5 -244z" />
<glyph unicode="&#xff;" horiz-adv-x="1003" d="M5 1060h188l223 -586q5 -13 12 -32.5t44.5 -128t40.5 -121.5l68 193l232 675h187l-408 -1060q-66 -170 -122.5 -252.5t-126 -123t-156.5 -40.5q-72 0 -121 10v133q37 -6 82 -6q165 0 261 242l16 42zM227 1195v180h162v-180h-162zM613 1195v180h160v-180h-160z" />
<glyph unicode="&#x152;" horiz-adv-x="2007" d="M95 697q0 325 180.5 510t499.5 185q105 0 208 -11h896v-153h-787v-443h728v-151h-728v-481h827v-153h-940q-66 -10 -206 -10q-316 0 -497 189t-181 518zM285 697q0 -263 129 -409t359 -146q81 0 132 4v1089q-44 4 -79.5 4h-50.5q-240 0 -365 -140.5t-125 -401.5z" />
<glyph unicode="&#x153;" horiz-adv-x="1894" d="M84 531q0 274 124 411.5t361 137.5q276 0 390 -174q124 174 379 174q467 0 467 -564v-23h-756q0 -182 75.5 -281t220.5 -99q114 0 183 46t94 116l155 -44q-95 -251 -432 -251q-270 0 -389 180q-121 -180 -392 -180q-234 0 -357 142t-123 409zM270 531q0 -420 292 -420 q160 0 230.5 102t70.5 318q0 215 -67.5 317t-223.5 102q-158 0 -230 -104.5t-72 -314.5zM1051 628h572q-15 168 -85.5 245t-202.5 77q-129 0 -204 -86t-80 -236z" />
<glyph unicode="&#x178;" horiz-adv-x="1338" d="M44 1381h206l420 -658l419 658h206l-534 -809v-572h-186v572zM397 1499v181h162v-181h-162zM783 1499v181h160v-181h-160z" />
<glyph unicode="&#x2c6;" horiz-adv-x="668" d="M0 1177v20l229 264h200l220 -264v-20h-103l-215 166h-2l-227 -166h-102z" />
<glyph unicode="&#x2dc;" horiz-adv-x="668" d="M-23 1177q11 100 34.5 151.5t63.5 81.5t101 30q44 0 85 -18.5t79 -40.5t72 -40t63 -18q98 0 115 117h90q-17 -145 -66 -204t-132 -59q-41 0 -82 18t-79.5 40t-73 40.5t-65.5 18.5q-54 0 -80.5 -30.5t-34.5 -86.5h-90z" />
<glyph unicode="&#x2000;" horiz-adv-x="881" />
<glyph unicode="&#x2001;" horiz-adv-x="1762" />
<glyph unicode="&#x2002;" horiz-adv-x="881" />
<glyph unicode="&#x2003;" horiz-adv-x="1762" />
<glyph unicode="&#x2004;" horiz-adv-x="587" />
<glyph unicode="&#x2005;" horiz-adv-x="440" />
<glyph unicode="&#x2006;" horiz-adv-x="293" />
<glyph unicode="&#x2007;" horiz-adv-x="293" />
<glyph unicode="&#x2008;" horiz-adv-x="220" />
<glyph unicode="&#x2009;" horiz-adv-x="352" />
<glyph unicode="&#x200a;" horiz-adv-x="97" />
<glyph unicode="&#x2010;" horiz-adv-x="668" d="M89 455v157h490v-157h-490z" />
<glyph unicode="&#x2011;" horiz-adv-x="668" d="M89 455v157h490v-157h-490z" />
<glyph unicode="&#x2012;" horiz-adv-x="668" d="M89 455v157h490v-157h-490z" />
<glyph unicode="&#x2013;" d="M0 442v134h1115v-134h-1115z" />
<glyph unicode="&#x2014;" horiz-adv-x="2007" d="M0 442v134h2007v-134h-2007z" />
<glyph unicode="&#x2018;" horiz-adv-x="445" d="M124 933v143q0 95 18.5 167t60.5 138h118q-93 -134 -93 -257h88v-191h-192z" />
<glyph unicode="&#x2019;" horiz-adv-x="445" d="M124 933q93 133 93 255h-87v193h191v-142q0 -103 -18.5 -173t-57.5 -133h-121z" />
<glyph unicode="&#x201a;" horiz-adv-x="445" d="M124 -257q93 134 93 257h-87v191h191v-141q0 -104 -18.5 -173.5t-57.5 -133.5h-121z" />
<glyph unicode="&#x201c;" horiz-adv-x="668" d="M74 933v143q0 95 18 167t60 138h118q-93 -134 -93 -257h88v-191h-191zM399 933v143q0 93 17.5 166t58.5 139h120q-92 -133 -92 -257h86v-191h-190z" />
<glyph unicode="&#x201d;" horiz-adv-x="668" d="M74 933q92 133 92 257h-87v191h191v-142q0 -103 -18.5 -173t-57.5 -133h-120zM399 933q92 133 92 257h-86v191h190v-142q0 -91 -16.5 -163t-61.5 -143h-118z" />
<glyph unicode="&#x201e;" horiz-adv-x="668" d="M74 -257q92 134 92 257h-87v191h191v-141q0 -104 -18.5 -173.5t-57.5 -133.5h-120zM399 -257q92 134 92 257h-86v191h190v-141q0 -93 -17 -165t-61 -142h-118z" />
<glyph unicode="&#x2022;" horiz-adv-x="702" d="M79 668q0 113 79.5 191t189.5 78q114 0 194.5 -79t80.5 -190q0 -110 -79.5 -192.5t-195.5 -82.5q-111 0 -190 81.5t-79 193.5z" />
<glyph unicode="&#x2026;" horiz-adv-x="2007" d="M272 0v215h192v-215h-192zM910 0v215h189v-215h-189zM1544 0v215h191v-215h-191z" />
<glyph unicode="&#x202f;" horiz-adv-x="352" />
<glyph unicode="&#x2039;" horiz-adv-x="668" d="M86 496v62l330 363h163v-30l-328 -365l330 -359v-29h-165z" />
<glyph unicode="&#x203a;" horiz-adv-x="668" d="M87 138v29l331 359l-329 365v30h163l330 -363v-62l-330 -358h-165z" />
<glyph unicode="&#x205f;" horiz-adv-x="440" />
<glyph unicode="&#x20ac;" d="M16 492l39 126h117l-2 77l2 84h-156l39 125h126q32 251 153.5 374t335.5 123q172 0 279 -82.5t136 -233.5l-181 -14q-14 89 -73.5 138t-163.5 49q-139 0 -213 -85t-94 -269h437l-39 -125h-405q-3 -23 -3 -84q0 -39 4 -77h443l-39 -126h-396q21 -191 100.5 -280t214.5 -89 q98 0 157 49t72 139l182 -14q-30 -152 -137 -234.5t-278 -82.5q-212 0 -336 128.5t-154 383.5h-167z" />
<glyph unicode="&#x2122;" horiz-adv-x="2007" d="M184 1272v109h637v-109h-256v-651h-131v651h-250zM944 621v760h186l218 -552l15 -41l73 188l164 405h181v-760h-124v607l-9 -22l-10 -31l-226 -554h-106l-159 405l-76 202l-1 -20l-1 -16v-571h-125z" />
<glyph unicode="&#x25fc;" horiz-adv-x="1058" d="M0 0v1058h1058v-1058h-1058z" />
<glyph unicode="&#xfb01;" horiz-adv-x="1003" d="M28 932v128h149v120q0 145 64 208.5t195 63.5q74 0 125 -11v-135q-45 8 -79 8q-67 0 -97.5 -34t-30.5 -125v-95h207v-128h-207v-932h-177v932h-149zM692 0v1060h176v-1060h-176zM692 1286v168h176v-168h-176z" />
<glyph unicode="&#xfb02;" horiz-adv-x="1003" d="M28 932v128h149v120q0 145 64 208.5t195 63.5q74 0 125 -11v-135q-45 8 -79 8q-67 0 -97.5 -34t-30.5 -125v-95h207v-128h-207v-932h-177v932h-149zM693 0v1454h176v-1454h-176z" />
</font>
</defs>
</svg>
